<?xml version="1.0" standalone="no"?>
<svg xmlns:xlink="http://www.w3.org/1999/xlink" id="wave" style="transform:rotate(0deg); transition: 0.3s" viewBox="0 0 1440 490" version="1.1" xmlns="http://www.w3.org/2000/svg"><defs><linearGradient id="sw-gradient-0" x1="0" x2="0" y1="1" y2="0"><stop stop-color="rgba(117.913, 147.965, 212.111, 1)" offset="0%"/><stop stop-color="rgba(235.346, 238.287, 255, 1)" offset="100%"/></linearGradient></defs><path style="transform:translate(0, 0px); opacity:1" fill="url(#sw-gradient-0)" d="M0,245L80,269.5C160,294,320,343,480,343C640,343,800,294,960,294C1120,294,1280,343,1440,310.3C1600,278,1760,163,1920,147C2080,131,2240,212,2400,212.3C2560,212,2720,131,2880,147C3040,163,3200,278,3360,269.5C3520,261,3680,131,3840,130.7C4000,131,4160,261,4320,302.2C4480,343,4640,294,4800,236.8C4960,180,5120,114,5280,122.5C5440,131,5600,212,5760,212.3C5920,212,6080,131,6240,138.8C6400,147,6560,245,6720,236.8C6880,229,7040,114,7200,73.5C7360,33,7520,65,7680,106.2C7840,147,8000,196,8160,253.2C8320,310,8480,376,8640,400.2C8800,425,8960,408,9120,400.2C9280,392,9440,392,9600,383.8C9760,376,9920,359,10080,318.5C10240,278,10400,212,10560,163.3C10720,114,10880,82,11040,122.5C11200,163,11360,278,11440,334.8L11520,392L11520,490L11440,490C11360,490,11200,490,11040,490C10880,490,10720,490,10560,490C10400,490,10240,490,10080,490C9920,490,9760,490,9600,490C9440,490,9280,490,9120,490C8960,490,8800,490,8640,490C8480,490,8320,490,8160,490C8000,490,7840,490,7680,490C7520,490,7360,490,7200,490C7040,490,6880,490,6720,490C6560,490,6400,490,6240,490C6080,490,5920,490,5760,490C5600,490,5440,490,5280,490C5120,490,4960,490,4800,490C4640,490,4480,490,4320,490C4160,490,4000,490,3840,490C3680,490,3520,490,3360,490C3200,490,3040,490,2880,490C2720,490,2560,490,2400,490C2240,490,2080,490,1920,490C1760,490,1600,490,1440,490C1280,490,1120,490,960,490C800,490,640,490,480,490C320,490,160,490,80,490L0,490Z"/><defs><linearGradient id="sw-gradient-1" x1="0" x2="0" y1="1" y2="0"><stop stop-color="rgba(97.798, 82.72, 255, 1)" offset="0%"/><stop stop-color="rgba(125.503, 130.206, 223.495, 1)" offset="100%"/></linearGradient></defs><path style="transform:translate(0, 50px); opacity:0.9" fill="url(#sw-gradient-1)" d="M0,0L80,49C160,98,320,196,480,269.5C640,343,800,392,960,392C1120,392,1280,343,1440,334.8C1600,327,1760,359,1920,326.7C2080,294,2240,196,2400,171.5C2560,147,2720,196,2880,204.2C3040,212,3200,180,3360,147C3520,114,3680,82,3840,130.7C4000,180,4160,310,4320,343C4480,376,4640,310,4800,285.8C4960,261,5120,278,5280,310.3C5440,343,5600,392,5760,400.2C5920,408,6080,376,6240,326.7C6400,278,6560,212,6720,171.5C6880,131,7040,114,7200,89.8C7360,65,7520,33,7680,81.7C7840,131,8000,261,8160,302.2C8320,343,8480,294,8640,277.7C8800,261,8960,278,9120,310.3C9280,343,9440,392,9600,351.2C9760,310,9920,180,10080,155.2C10240,131,10400,212,10560,245C10720,278,10880,261,11040,253.2C11200,245,11360,245,11440,245L11520,245L11520,490L11440,490C11360,490,11200,490,11040,490C10880,490,10720,490,10560,490C10400,490,10240,490,10080,490C9920,490,9760,490,9600,490C9440,490,9280,490,9120,490C8960,490,8800,490,8640,490C8480,490,8320,490,8160,490C8000,490,7840,490,7680,490C7520,490,7360,490,7200,490C7040,490,6880,490,6720,490C6560,490,6400,490,6240,490C6080,490,5920,490,5760,490C5600,490,5440,490,5280,490C5120,490,4960,490,4800,490C4640,490,4480,490,4320,490C4160,490,4000,490,3840,490C3680,490,3520,490,3360,490C3200,490,3040,490,2880,490C2720,490,2560,490,2400,490C2240,490,2080,490,1920,490C1760,490,1600,490,1440,490C1280,490,1120,490,960,490C800,490,640,490,480,490C320,490,160,490,80,490L0,490Z"/></svg>