<?xml version="1.0" standalone="no"?>
<svg xmlns:xlink="http://www.w3.org/1999/xlink" id="wave" style="transform:rotate(0deg); transition: 0.3s" viewBox="0 0 1440 490" version="1.1" xmlns="http://www.w3.org/2000/svg"><defs><linearGradient id="sw-gradient-0" x1="0" x2="0" y1="1" y2="0"><stop stop-color="rgba(78, 122, 217, 1)" offset="0%"/><stop stop-color="rgba(230.325, 230.325, 230.325, 1)" offset="100%"/></linearGradient></defs><path style="transform:translate(0, 0px); opacity:1" fill="url(#sw-gradient-0)" d="M0,147L80,171.5C160,196,320,245,480,285.8C640,327,800,359,960,318.5C1120,278,1280,163,1440,147C1600,131,1760,212,1920,228.7C2080,245,2240,196,2400,204.2C2560,212,2720,278,2880,318.5C3040,359,3200,376,3360,318.5C3520,261,3680,131,3840,114.3C4000,98,4160,196,4320,196C4480,196,4640,98,4800,98C4960,98,5120,196,5280,261.3C5440,327,5600,359,5760,351.2C5920,343,6080,294,6240,302.2C6400,310,6560,376,6720,334.8C6880,294,7040,147,7200,114.3C7360,82,7520,163,7680,171.5C7840,180,8000,114,8160,122.5C8320,131,8480,212,8640,228.7C8800,245,8960,196,9120,187.8C9280,180,9440,212,9600,253.2C9760,294,9920,343,10080,343C10240,343,10400,294,10560,269.5C10720,245,10880,245,11040,220.5C11200,196,11360,147,11440,122.5L11520,98L11520,490L11440,490C11360,490,11200,490,11040,490C10880,490,10720,490,10560,490C10400,490,10240,490,10080,490C9920,490,9760,490,9600,490C9440,490,9280,490,9120,490C8960,490,8800,490,8640,490C8480,490,8320,490,8160,490C8000,490,7840,490,7680,490C7520,490,7360,490,7200,490C7040,490,6880,490,6720,490C6560,490,6400,490,6240,490C6080,490,5920,490,5760,490C5600,490,5440,490,5280,490C5120,490,4960,490,4800,490C4640,490,4480,490,4320,490C4160,490,4000,490,3840,490C3680,490,3520,490,3360,490C3200,490,3040,490,2880,490C2720,490,2560,490,2400,490C2240,490,2080,490,1920,490C1760,490,1600,490,1440,490C1280,490,1120,490,960,490C800,490,640,490,480,490C320,490,160,490,80,490L0,490Z"/></svg>